<svg width="414.653" height="153.667" viewBox="0 0 414.653 153.667" xmlns="http://www.w3.org/2000/svg"><path d="M301.265 12.495h11.164v41.62h-11.164V28.61c-1.161-3.107-4.609-7.238-9.901-7.238-6.727 0-11.063 5.804-11.063 12.257 0 5.907 3.791 10.174 8.946 11.302 3.414.75 6.59.442 6.59.442 0 2.494.068 9.459-8.058 9.459-9.696 0-18.95-7.376-18.95-21.305 0-12.566 8.263-21.818 19.94-21.818 5.258 0 9.663 2.63 12.496 5.395zm-167.57 9.833c2.15.615 4.198.615 5.598-.785 1.332-1.332 2.391-3.586 3.107-5.531-3.824-2.152-9.116-4.132-15.397-4.303-11.883-.341-17.481 5.6-17.687 13.623-.17 6.59 3.28 10.79 17.994 13.521 2.903.545 4.712 1.502 4.644 3.551-.07 2.594-2.664 3.14-6.898 3.14a25.17 25.17 0 0 1-12.666-3.38l-3.756 8.57c3.176 1.605 7.956 4.098 16.867 4.098 10.788 0 17.752-5.088 17.752-13.18 0-6.043-3.072-10.208-12.017-12.393-2.082-.512-6.862-1.366-8.433-1.742-1.435-.341-2.526-1.638-2.459-3.345.035-1.025.854-2.664 3.142-2.97 3.994-.547 7.886.512 10.209 1.194M25.139-.001H1.802v9.73h22.896c9.949 0 16.897 6.146 16.897 17.447 0 11.301-6.948 17.276-16.897 17.276H12.977V19.46h-1.738c-4.496 0-9.437 4.2-9.437 9.423v25.3h23.337c16.016 0 27.972-9.56 27.972-27.007C53.11 9.729 41.155.101 25.139-.001M384.88 17.172v-4.643h-11.13v41.654h11.13v-25.54c1.127-1.979 2.05-3.038 3.756-4.471 1.707-1.4 3.824-2.117 6.384-2.117 5.668 0 8.503 3.312 8.503 9.936v13.997c0 4.507 3.686 8.195 8.193 8.195h2.936V30.147c0-5.463-1.33-9.868-3.96-13.282-2.663-3.38-6.59-5.088-12.052-5.088-5.43 0-10.243 1.538-13.76 5.395m-51.11 0v-4.643h-11.131v41.654h11.13v-25.54c1.127-1.979 2.048-3.038 3.755-4.471 1.708-1.4 3.824-2.117 6.385-2.117 5.668 0 8.502 3.312 8.502 9.936v13.997c0 4.507 3.688 8.195 8.228 8.195h2.97V30.147c0-5.463-1.332-9.868-3.994-13.282-2.663-3.38-6.59-5.088-12.018-5.088-5.464 0-10.277 1.538-13.794 5.395m-159.376 5.259c2.15.614 4.198.614 5.633-.786 1.33-1.332 2.39-3.585 3.107-5.532-3.824-2.15-9.151-4.13-15.399-4.301-11.916-.341-17.48 5.599-17.685 13.623-.171 6.589 3.277 10.789 17.993 13.52 2.868.547 4.677 1.502 4.61 3.552-.07 2.595-2.63 3.14-6.863 3.14-5.122 0-9.39-1.468-12.668-3.38l-3.755 8.569c3.21 1.605 7.921 4.097 16.867 4.097 10.754 0 17.753-5.121 17.753-13.178 0-6.043-3.073-10.208-12.052-12.394-2.05-.512-6.83-1.365-8.399-1.741-1.469-.341-2.561-1.639-2.493-3.347.035-1.024.853-2.663 3.176-2.969 3.995-.547 7.852.512 10.175 1.194m-83.872-2.082v14.27c0 5.362-1.532 9.937-9.335 9.937-7.803 0-9.337-4.575-9.337-9.937V12.597H60.742v23.9c0 10.413 6.473 18.436 20.478 18.436 14.003 0 20.483-8.023 20.483-18.436v-23.9h-2.97c-4.531 0-8.178 3.278-8.178 7.82m154.921-8.502c-6.452 0-11.47 2.286-15.193 6.828-2.595-4.61-7.238-6.931-13.93-6.931-5.633 0-10.174 1.81-13.622 5.395v-4.644h-11.166v41.654h11.166V28.68c1.706-4.371 5.018-6.522 9.866-6.522 5.6 0 8.331 3.278 8.331 9.834v22.192h11.165v-25.54c1.639-4.267 4.814-6.52 9.628-6.52 5.566 0 8.364 3.312 8.364 9.936v13.929c0 4.507 4.064 8.195 8.604 8.195h2.527V30.215c0-5.498-1.297-9.936-3.857-13.316-2.562-3.346-6.522-5.054-11.883-5.054" fill="#ed1546" fill-rule="evenodd"/><path d="M16.52 116.663h12.336l-5.772-18.349h-.216zm13.923 5.94H14.788l-2.814 8.604 5.122.608v5.787H0v-5.787l4.616-.608L21.498 84.23h8.512l16.52 46.978 4.905.608v5.787H27.917v-5.787l5.34-.608-2.814-8.605" fill="#21386a"/><path d="M61.582 81.106c4.177 0 6.741 2.131 6.741 6.624 0 3.883-2.052 6.7-6.888 6.7-5.349 0-6.814-3.502-6.814-6.624 0-3.578 1.904-6.7 6.96-6.7m-4.616 57.714v-33.273l-5.423-.532v-5.102l16.781-.609v30.912c0 12.87-3.81 23.45-16.12 23.45-7.402 0-10.994-3.73-10.994-7.84 0-3.885 2.493-6.32 5.937-6.32 3.443 0 5.275 1.98 5.275 5.025 0 .457-.074.914-.146 1.446l-2.565.533c-.22.534-.292.916-.292 1.295 0 1.142.879 1.903 2.857 1.903 4.031 0 4.69-4.035 4.69-10.888M88.956 80.497v51.319l5.055.533v5.254H72.69v-5.254l4.909-.533V86.74l-4.909-.534v-5.101l16.267-.608M117.447 126.41v-4.722h-2.857c-4.618 0-5.937 1.905-5.937 5.864 0 3.579 1.173 5.177 4.031 5.177 2.493 0 4.763-1.674 4.763-6.32m0-8.68v-5.481c0-5.864-1.32-9.29-6.521-9.29-2.199 0-4.179.533-4.179 2.512 0 .306.075.687.147 1.067h2.785c.22.99.44 2.056.44 2.97 0 3.045-1.833 5.254-5.642 5.254-3.957 0-5.717-2.667-5.717-6.016 0-6.014 5.278-10.126 14.73-10.126 9.746 0 15.315 3.425 15.315 14.39v15.684c0 2.741.148 4.036 1.685 4.036.588 0 1.32-.152 2.418-.61l1.027 3.884c-1.392.99-4.617 2.437-8.281 2.437-4.69 0-6.668-2.055-7.547-5.71-1.32 2.511-4.104 5.71-10.333 5.71-5.861 0-10.772-2.665-10.772-9.975 0-8.298 5.57-10.736 15.243-10.736h5.202M150.792 99.151l.513 7.233h.439c1.832-3.882 4.984-7.766 12.384-7.766 7.256 0 11.359 3.503 11.359 12.412v20.71l4.616.532v5.33h-19.418v-5.33l3.443-.532v-19.189c0-4.11-.513-6.852-4.543-6.852-3.958 0-7.034 2.437-7.034 8.604v17.437l3.737.532v5.33h-19.64v-5.33l4.544-.532v-26.27l-4.544-.533v-5.253l14.144-.533M269.57 131.435h6.269c6.662 0 10.293-2.055 10.293-9.29 0-6.47-3.333-9.136-9.701-9.136h-6.862zm0-24.212h5.677c6.293 0 8.96-2.895 8.96-8.758 0-5.86-2.742-7.994-8.74-7.994h-5.898zm6.713-22.919c12.292 0 19.993 2.968 19.993 12.715 0 6.929-3.925 10.965-11.183 12.258v.154c8.442 1.218 13.775 5.557 13.775 13.094 0 12.108-9.85 15.078-23.252 15.078h-24.087v-5.787l5.822-.533V90.624l-5.822-.457v-5.863h24.754M328.384 132.273v5.33h-24.73v-5.33l4.813-.533V105.47l-4.814-.534V99.76l15.106-.532.518 6.546h.296c1.776-3.578 4.666-7.157 10.663-7.157 4.96 0 8.81 2.741 8.81 9.137 0 5.026-2.962 7.995-7.182 7.995-4.665 0-6.293-2.97-6.219-6.928l2.962-.915c.073-.38.148-.684.148-.99 0-1.294-.89-1.827-2.148-1.827-4.146 0-6.664 5.179-6.664 10.812v15.838l8.441.533M360.553 103.263c-5.554 0-6.737 5.481-6.737 14.924 0 10.203 1.183 15.532 6.96 15.532 5.405 0 6.663-5.407 6.663-14.999 0-9.976-1.036-15.457-6.886-15.457m.37-4.644c13.256 0 18.66 8.223 18.66 19.796 0 11.878-6.368 20.025-19.103 20.025-13.107 0-18.81-8.147-18.81-19.72 0-11.878 6.665-20.101 19.253-20.101M384.664 125.268h4.59c1.185 4.721 5.037 7.92 10.811 7.92 4.148 0 6.147-1.372 6.147-4.189 0-3.426-3.332-4.035-7.48-4.796-6.219-1.143-13.845-2.438-13.845-12.566 0-7.916 5.924-13.019 13.772-13.019 3.333 0 5.406.99 6.961 1.827.519.304 1.036.458 1.555.458.962 0 1.11-.533 1.48-1.828h3.925v11.802h-4.517c-1.924-4.872-4.516-7.233-9.255-7.233-2.89 0-5.628 1.142-5.628 3.96 0 3.12 3.256 3.73 7.256 4.568 6.22 1.217 14.217 2.741 14.217 12.944 0 8.452-5.406 13.324-13.625 13.324-4.592 0-7.181-1.37-9.107-2.36-.518-.228-.964-.382-1.406-.382-.816 0-1.112.535-1.555 2.285h-4.296v-12.715M200.245 111.658c-1.586-1.564-2.838-3.216-3.76-4.959-.922-1.74-1.382-3.668-1.382-5.785 0-2.555.642-4.815 1.928-6.774a12.933 12.933 0 0 1 5.08-4.53c2.1-1.057 4.37-1.587 6.813-1.587a17 17 0 0 1 6.495 1.291c2.098.859 3.802 2.072 5.11 3.636 1.307 1.564 1.962 3.337 1.962 5.32 0 2.425-.858 4.308-2.572 5.652-1.716 1.347-3.687 2.392-5.915 3.142l-.708-.595c.687-.927 1.221-2.072 1.607-3.438.386-1.366.578-2.886.578-4.562 0-2.953-.6-5.276-1.8-6.975-1.2-1.696-2.849-2.544-4.949-2.544-1.2 0-2.261.287-3.183.859a5.727 5.727 0 0 0-2.121 2.314 6.747 6.747 0 0 0-.739 3.107c0 1.85.588 3.492 1.768 4.924 1.179 1.435 2.882 3.076 5.111 4.927.17.132.343.287.515.461l26.818 19.9v14.28h-.385s-34.684-26.5-36.27-28.064m-.933 24.658c-2.678-.947-4.842-2.401-6.492-4.364-1.65-1.96-2.476-4.372-2.476-7.239 0-3.26 1.06-5.883 3.182-7.867 2.122-1.982 4.832-3.459 8.134-4.43l.642.729c-.471.793-.847 1.895-1.126 3.305a22.82 22.82 0 0 0-.417 4.428c0 2.868.524 5.335 1.576 7.405 1.05 2.072 2.464 3.636 4.243 4.695 1.777 1.058 3.781 1.586 6.01 1.586 2.658 0 5.25-.737 7.779-2.215 2.528-1.475 4.607-3.624 6.237-6.445 1.628-2.82 2.443-6.103 2.443-9.85 0-1.984-.215-3.68-.644-5.09-.43-1.411-.965-2.71-1.607-3.9l-.321-.595 3.601-1.058h.256v9.453c0 4.32-.933 8.209-2.796 11.667-1.865 3.462-4.512 6.192-7.941 8.198-3.428 2.007-7.35 3.01-11.764 3.01-3 0-5.841-.475-8.519-1.423" fill="#21386a"/></svg>
