<?xml version="1.0" encoding="UTF-8"?>
<svg xmlns="http://www.w3.org/2000/svg" xmlns:xlink="http://www.w3.org/1999/xlink" id="Layer_1" data-name="Layer 1" version="1.1" viewBox="0 0 1000 450">
  <defs>
    <style>
      .cls-1 {
        fill: #009457;
      }

      .cls-1, .cls-2, .cls-3, .cls-4, .cls-5, .cls-6, .cls-7, .cls-8, .cls-9, .cls-10, .cls-11, .cls-12, .cls-13, .cls-14 {
        stroke-width: 0px;
      }

      .cls-2 {
        fill: #00a5ff;
      }

      .cls-3 {
        fill: #001f55;
      }

      .cls-4 {
        fill: #00d17d;
      }

      .cls-5 {
        fill: url(#linear-gradient);
      }

      .cls-6 {
        fill: #c58bf3;
      }

      .cls-7 {
        fill: #ff9300;
      }

      .cls-8 {
        fill: #7100e5;
      }

      .cls-9 {
        fill: #071e4f;
      }

      .cls-10 {
        fill: url(#linear-gradient-4);
      }

      .cls-11 {
        fill: url(#linear-gradient-2);
      }

      .cls-12 {
        fill: url(#linear-gradient-3);
      }

      .cls-13 {
        fill: #0053e7;
      }

      .cls-14 {
        fill: #ff5122;
      }
    </style>
    <linearGradient id="linear-gradient" x1="132.8" y1="128.7" x2="250.1" y2="176.2" gradientUnits="userSpaceOnUse">
      <stop offset="0" stop-color="#0053e7"></stop>
      <stop offset=".1" stop-color="#004fde"></stop>
      <stop offset=".3" stop-color="#0047c5"></stop>
      <stop offset=".6" stop-color="#00389d"></stop>
      <stop offset=".9" stop-color="#002567"></stop>
      <stop offset="1" stop-color="#001c4d"></stop>
    </linearGradient>
    <linearGradient id="linear-gradient-2" x1="299.8" y1="321.8" x2="181.7" y2="273.9" gradientUnits="userSpaceOnUse">
      <stop offset="0" stop-color="#ff5122"></stop>
      <stop offset=".2" stop-color="#f6481e"></stop>
      <stop offset=".5" stop-color="#e12f14"></stop>
      <stop offset=".9" stop-color="#bd0803"></stop>
      <stop offset="1" stop-color="#b60000"></stop>
    </linearGradient>
    <linearGradient id="linear-gradient-3" x1="311.9" y1="142.9" x2="264.9" y2="257.8" gradientUnits="userSpaceOnUse">
      <stop offset="0" stop-color="#009457"></stop>
      <stop offset=".2" stop-color="#008b53"></stop>
      <stop offset=".5" stop-color="#00724a"></stop>
      <stop offset=".8" stop-color="#004b3a"></stop>
      <stop offset="1" stop-color="#003432"></stop>
    </linearGradient>
    <linearGradient id="linear-gradient-4" x1="120.2" y1="305.7" x2="166.2" y2="192.8" gradientUnits="userSpaceOnUse">
      <stop offset="0" stop-color="#7100e5"></stop>
      <stop offset=".1" stop-color="#6c00dc"></stop>
      <stop offset=".3" stop-color="#6000c3"></stop>
      <stop offset=".6" stop-color="#4c009c"></stop>
      <stop offset=".9" stop-color="#310065"></stop>
      <stop offset="1" stop-color="#2a0056"></stop>
    </linearGradient>
  </defs>
  <g>
    <g>
      <polygon class="cls-9" points="417.3 140.6 459.2 95.2 487.3 95.2 438.3 147.8 489.6 201.4 461 201.4 417.3 155.7 417.3 201.4 395.1 201.4 395.1 95.2 417.3 95.2 417.3 140.6"></polygon>
      <path class="cls-9" d="M517.5,201.4h-24.3l63.2-110.4,63.2,110.4h-24.6l-11.4-20.4h-54.6l-11.5,20.4ZM538.8,163.6h34.8l-17.5-31-17.4,31Z"></path>
      <path class="cls-9" d="M659.2,118.3c-5.2,3.2-9.3,7.4-12.3,12.7-3,5.3-4.6,11.1-4.6,17.2s1.5,11.9,4.6,17.2c3,5.3,7.1,9.6,12.3,12.7,5.2,3.2,10.8,4.7,17,4.7,10.7,0,20.8-3.7,30.2-11.1v24c-7.8,5.2-17.9,7.9-30.2,7.9s-19.7-2.5-28.3-7.5c-8.7-5-15.5-11.7-20.5-20.2-5-8.4-7.6-17.7-7.6-27.8s2.5-19.3,7.6-27.8c5-8.4,11.9-15.2,20.5-20.2,8.7-5,18.1-7.5,28.3-7.5s22.1,2.9,30.7,8.6l-.4,23.2c-9.6-7.4-19.7-11.1-30.3-11.1s-11.8,1.6-17,4.7Z"></path>
      <path class="cls-9" d="M752.2,115.8c-3,2.3-4.4,5.3-4.4,8.9s1,4.7,2.9,6.2c2,1.6,4.4,2.8,7.4,3.7,3,.9,7.2,1.8,12.6,2.8,8.2,1.6,15,3.3,20.4,5.1,5.3,1.8,9.9,5,13.8,9.4,3.9,4.5,5.8,10.6,5.8,18.4s-4.1,19.2-12.2,24.8c-8.1,5.7-19,8.5-32.5,8.5s-18.5-1.5-26.2-4.5c-7.7-3-13.7-6.5-17.9-10.6l9.7-17.7c4.5,3.8,9.8,7,15.8,9.4,6,2.5,12.3,3.7,18.8,3.7s12.7-1.2,16.1-3.6c3.4-2.4,5.1-5.6,5.1-9.6s-1-4.7-2.9-6.2c-2-1.6-4.4-2.8-7.3-3.7-2.9-.9-7.1-1.9-12.6-2.9-8.2-1.6-14.9-3.3-20.1-5.2-5.2-1.9-9.8-5-13.6-9.4-3.8-4.4-5.7-10.4-5.7-18s1.7-12.4,5.1-17.4c3.4-4.9,8.2-8.7,14.4-11.2,6.2-2.6,13.3-3.9,21.4-3.9s16.6,1.6,23.5,4.7c6.9,3.2,12.7,6.9,17.2,11.1l-9.4,16.9c-10.6-8.8-21.1-13.2-31.5-13.2s-10.8,1.1-13.8,3.4Z"></path>
      <polygon class="cls-9" points="879.8 201.4 857.6 201.4 857.6 115.1 823.4 115.1 823.4 95.2 914 95.2 914 115.1 879.8 115.1 879.8 201.4"></polygon>
    </g>
    <g>
      <path class="cls-9" d="M401.1,289.6c1.5-.5,2.7-1.2,3.8-2.1,1-.8,1.9-1.9,2.5-3.1.6-1.2,1.1-2.6,1.4-4.3h45.8v-21.2h-6.8v15.5h-38.6v-15.5h-6.8v17.8c0,1.2,0,2.3-.3,3.2-.2.9-.5,1.7-1,2.4-.5.7-1.2,1.2-2.2,1.7s-2.2.8-3.7,1.1l.9,5.7c1.9-.3,3.6-.7,5.1-1.2Z"></path>
      <path class="cls-9" d="M403.2,251.5c.3.3.7.5,1.1.7s.8.3,1.3.3.9,0,1.3-.3c.4-.2.8-.4,1.1-.7.3-.3.5-.7.7-1s.3-.8.3-1.3,0-.9-.3-1.3c-.2-.4-.4-.7-.7-1-.3-.3-.7-.5-1.1-.7-.4-.2-.8-.3-1.3-.3s-.9,0-1.3.3-.8.4-1.1.7c-.3.3-.5.7-.7,1-.2.4-.3.8-.3,1.3s0,.9.3,1.3c.2.4.4.7.7,1Z"></path>
      <path class="cls-9" d="M447.5,284.5c-.4-.2-.8-.3-1.3-.3s-.9,0-1.3.3c-.4.2-.8.4-1.1.7-.3.3-.5.7-.7,1-.2.4-.3.8-.3,1.3s0,.9.3,1.3c.2.4.4.7.7,1,.3.3.7.5,1.1.7.4.2.8.3,1.3.3s.9,0,1.3-.3.8-.4,1.1-.7c.3-.3.5-.7.7-1,.2-.4.3-.8.3-1.3s0-.9-.3-1.3c-.2-.4-.4-.7-.7-1-.3-.3-.7-.5-1.1-.7Z"></path>
      <path class="cls-9" d="M452.7,284.5c-.4.2-.8.4-1.1.7-.3.3-.5.7-.7,1-.2.4-.3.8-.3,1.3s0,.9.3,1.3c.2.4.4.7.7,1,.3.3.7.5,1.1.7.4.2.8.3,1.3.3s.9,0,1.3-.3c.4-.2.8-.4,1.1-.7s.5-.7.7-1c.2-.4.3-.8.3-1.3s0-.9-.3-1.3c-.2-.4-.4-.7-.7-1s-.7-.5-1.1-.7-.8-.3-1.3-.3-.9,0-1.3.3Z"></path>
      <path class="cls-9" d="M463.8,289.6c1.5-.5,2.7-1.2,3.8-2.1,1-.8,1.9-1.9,2.5-3.1.6-1.2,1.1-2.6,1.4-4.3h8.9c1.2,0,2.3,0,3.4-.2,1.1-.2,2.1-.4,3.1-.6,1-.3,1.9-.6,2.8-.9.9-.3,1.7-.7,2.4-1,.5.3,1.2.6,2,.9.8.3,1.7.6,2.7.9,1,.3,2.1.5,3.3.7,1.2.2,2.4.3,3.7.3h16.9v-37.2h-6.8v31.5h-8.7c-.7,0-1.3,0-2,0-.7,0-1.4-.1-2-.2-.6,0-1.2-.2-1.8-.3s-1-.2-1.5-.4c1.2-1.2,2.2-2.4,3-3.4.8-1.1,1.4-2,1.8-2.9.4-.9.7-1.7.9-2.4.2-.7.2-1.3.2-1.8,0-1-.3-1.8-.9-2.5-.6-.7-1.3-1.3-2.2-1.7s-1.9-.8-3-1c-1.1-.2-2.2-.3-3.2-.3s-2.6,0-3.8.3c-1.2.2-2.3.4-3.3.7-1,.3-1.9.6-2.8.9-.8.3-1.5.7-2.1.9-.3.2-.5.4-.8.8s-.5.8-.7,1.3c-.2.5-.4,1-.6,1.5-.2.5-.3.9-.4,1.3.1.2.4.4.7.8.3.4.7.9,1.2,1.5.3.4.7.9,1.1,1.4.4.5.9,1.1,1.3,1.6.5.6,1,1.1,1.5,1.6.5.5,1,1,1.5,1.5-.6.2-1.5.4-2.6.6-1.1.2-2.4.3-3.8.3h-8.8v-15.5h-6.8v17.8c0,1.2,0,2.3-.3,3.2-.2.9-.5,1.7-1,2.4-.5.7-1.2,1.2-2.2,1.7s-2.2.8-3.7,1.1l.9,5.7c1.9-.3,3.6-.7,5.1-1.2ZM487.1,265.7c-.5-.7-.9-1.2-1.1-1.7.5-.2,1-.4,1.6-.6.6-.2,1.1-.4,1.7-.5.6-.1,1.1-.2,1.7-.3.5,0,1-.1,1.4-.1.7,0,1.3,0,1.9.2.6.1,1.1.3,1.5.6s.7.5,1,.9c.2.3.3.7.3,1.1s0,.7-.2,1.2-.4,1-.8,1.5c-.4.5-.8,1.1-1.4,1.7s-1.3,1.2-2.2,1.8c-.6-.4-1.2-1-1.8-1.6-.6-.7-1.3-1.3-1.8-2-.6-.7-1.1-1.4-1.6-2Z"></path>
      <path class="cls-9" d="M466,251.5c.3.3.7.5,1.1.7s.8.3,1.3.3.9,0,1.3-.3c.4-.2.8-.4,1.1-.7.3-.3.5-.7.7-1s.3-.8.3-1.3,0-.9-.3-1.3c-.2-.4-.4-.7-.7-1-.3-.3-.7-.5-1.1-.7-.4-.2-.8-.3-1.3-.3s-.9,0-1.3.3-.8.4-1.1.7c-.3.3-.5.7-.7,1-.2.4-.3.8-.3,1.3s0,.9.3,1.3c.2.4.4.7.7,1Z"></path>
      <rect class="cls-9" x="527.3" y="243" width="6.8" height="37.2"></rect>
      <path class="cls-9" d="M553.9,279.4c1.5-.5,2.7-1.1,3.6-2,1,.8,2.1,1.5,3.5,2,1.2.5,2.8.7,4.5.7,0,0,0,0,0,0,.2,0,.3,0,.5,0h5.4c1.3,0,2.4-.2,3.3-.6.9-.4,1.7-.9,2.3-1.6.9.6,2,1.2,3.3,1.5s2.7.6,4.5.6h24.7v-5.7h-7.4c-.9,0-1.7-.2-2.4-.5-.7-.3-1.4-.7-1.9-1.3-.5-.5-.9-1.2-1.2-1.9s-.4-1.5-.4-2.4.2-1.8.5-2.4c.3-.6.7-1.1,1.2-1.5.5-.4,1-.6,1.6-.8.6-.2,1.2-.2,1.7-.2s1,0,1.6.1c.5,0,1.1.2,1.6.3.5.1,1,.2,1.4.3s.8.2,1.1.3l.7-5.9c-.3-.1-.8-.3-1.3-.4-.5-.1-1.1-.2-1.7-.3-.6,0-1.2-.1-1.7-.2-.6,0-1,0-1.4,0-1.7,0-3.3.3-4.7.9-1.4.6-2.6,1.4-3.7,2.5-1,1-1.8,2.2-2.4,3.6s-.9,2.8-.9,4.4,0,.8,0,1.2.1.9.2,1.4c.1.5.2,1,.4,1.4.1.5.3.9.4,1.3h-5.8c-1.1,0-2.1,0-3.1-.3-1-.2-1.9-.4-2.8-.8,0-.3,0-.6,0-.9,0-.3,0-.6,0-.9v-12.7h-6.8v11.8c0,.7,0,1.3-.2,1.8-.1.5-.3.9-.6,1.2s-.6.5-1,.6c-.4.1-.9.2-1.5.2h-3c-1.1,0-2.2,0-3.3-.3-1-.2-2-.5-2.9-.9.2-.8.3-1.6.3-2.5,0-2.4-.9-4.9-2.7-7.5-1.8-2.6-4.4-5.3-7.8-8.1l-4.9,4.8c1.1.8,2.1,1.8,3.2,2.7,1,1,2,2,2.8,2.9s1.5,2,2,2.9c.5,1,.8,1.9.8,2.7s0,.9-.2,1.3c-.1.4-.4.7-.7,1-.3.3-.9.5-1.5.7-.7.2-1.5.2-2.6.2h-10.1v5.7h9.9c2.1,0,3.9-.2,5.4-.7Z"></path>
      <path class="cls-9" d="M575.7,290.8c.5,0,.9,0,1.3-.3.4-.2.8-.4,1.1-.7.3-.3.5-.7.7-1s.3-.8.3-1.3,0-.9-.3-1.3-.4-.7-.7-1c-.3-.3-.7-.5-1.1-.7-.4-.2-.8-.3-1.3-.3s-.9,0-1.3.3-.8.4-1.1.7c-.3.3-.5.7-.7,1s-.3.8-.3,1.3,0,.9.3,1.3.4.7.7,1c.3.3.7.5,1.1.7.4.2.8.3,1.3.3Z"></path>
      <path class="cls-9" d="M649.5,262.8h-1.8c-.5,0-.9,0-1.3-.2-.4-.1-.7-.3-.9-.5-.2-.2-.4-.5-.5-.7s-.2-.5-.2-.8c0-.5.2-.9.5-1.2.3-.2.8-.4,1.4-.4s.7,0,1.1,0c.4,0,.8.1,1.2.2l.5-3.2c-.8-.1-1.4-.2-1.9-.2-.5,0-.9,0-1.3,0-1,0-1.8.1-2.5.3-.7.2-1.3.5-1.7.9-.5.4-.8.8-1,1.3-.2.5-.3,1-.3,1.6s0,1,.3,1.5c.2.5.4,1,.7,1.3h-2.4v3.1h10.3v-3.1Z"></path>
      <path class="cls-9" d="M720.7,277.1c.5.4,1,.9,1.6,1.2.6.4,1.2.7,2,1,.7.3,1.5.5,2.4.6.7.1,1.5.2,2.4.2,0,0,13.7,0,13.7,0v-37.2h-6.8v31.5h-6.2c-1.3,0-2.5-.1-3.6-.3-1.1-.2-2.2-.6-3.1-1.1.1-.5.2-1,.3-1.5,0-.5.1-1,.1-1.5,0-.8-.1-1.7-.3-2.6-.2-.9-.5-1.8-.9-2.6-.4-.9-.9-1.7-1.5-2.4-.6-.8-1.4-1.4-2.2-2-.8-.6-1.8-1-2.9-1.4s-2.2-.5-3.5-.5-1.9.2-3.1.5-2.3.9-3.4,1.9c-1.2.9-2.3,2.3-3.4,4-1.1,1.7-2.1,4-2.9,6.8-.3.9-.8,1.6-1.4,2.1-.6.4-1.4.7-2.3.7h-5.2c-1.1,0-2.1,0-3.1-.3-1-.2-1.9-.4-2.8-.8,0-.3,0-.6,0-.9,0-.3,0-.6,0-.9v-28.7h-6.8v27.8c0,.7,0,1.3-.2,1.8-.1.5-.3.9-.6,1.2s-.6.5-1,.6c-.4.1-.9.2-1.5.2h-3c-1.1,0-2.1,0-3.1-.3-1-.2-1.9-.4-2.8-.8,0-.3,0-.6,0-.9,0-.3,0-.6,0-.9v-28.7h-6.8v27.8c0,.7,0,1.3-.2,1.8-.1.5-.3.9-.6,1.2s-.6.5-1,.6c-.4.1-.9.2-1.5.2h-16.7c-2.2,0-4,0-5.4-.3-1.4-.2-2.4-.5-3.2-1s-1.3-1-1.6-1.7c-.3-.7-.4-1.6-.4-2.6s0-1.3.1-2c0-.7.2-1.3.3-2l-6.1-.5c0,.4-.2.9-.2,1.4,0,.5-.1,1-.2,1.5,0,.5-.1,1-.1,1.5,0,.5,0,.9,0,1.2,0,.9,0,1.8.2,2.6.2.8.5,1.6.9,2.4.4.7,1,1.4,1.7,2,.7.6,1.6,1.1,2.7,1.6,1.1.4,2.4.8,4,1,1.5.2,3.4.4,5.4.4h20.8c1.3,0,2.4-.2,3.3-.6.9-.4,1.7-.9,2.3-1.6.9.6,2,1.2,3.3,1.5s2.7.6,4.5.6h5.4c1.3,0,2.4-.2,3.3-.6.9-.4,1.7-.9,2.3-1.6.9.6,2,1.2,3.3,1.5s2.7.6,4.5.6h6.1c3,0,5.2-1.1,6.8-3.2.5.4,1,.8,1.6,1.3.6.4,1.3.8,2,1.1s1.7.6,2.6.8c1,.2,2.1.3,3.3.3,1.8,0,3.3-.3,4.7-.9,1.3-.6,2.5-1.4,3.4-2.4ZM716.6,272.2c-.3.6-.6,1.1-1.1,1.5-.5.4-1.1.7-1.8.9-.7.2-1.5.3-2.3.3s-1.2,0-1.8-.2c-.6-.1-1.3-.3-1.8-.5-.6-.2-1.1-.4-1.6-.7s-.8-.5-1-.7c.2-1.1.5-2.2,1-3.3s.9-2,1.4-2.8c.6-.8,1.2-1.5,1.9-2s1.5-.8,2.3-.8,1.6.2,2.3.6c.7.4,1.2.9,1.7,1.5s.8,1.3,1,2,.3,1.3.3,2c0,.9-.1,1.7-.4,2.3Z"></path>
      <rect class="cls-9" x="749.5" y="243" width="6.8" height="37.2"></rect>
      <path class="cls-9" d="M773.8,276.4c1,.7,2.1,1.2,3.3,1.5,1.2.3,2.4.5,3.6.5s2.3-.1,3.4-.4c1.1-.2,2.2-.7,3.3-1.2.2.5.5.9.9,1.3.4.4.9.8,1.5,1.1.6.3,1.3.5,2.2.7.9.2,1.9.3,3.1.3h30c1.3,0,2.4-.2,3.3-.6.9-.4,1.7-.9,2.3-1.6.9.6,2,1.2,3.3,1.5s2.7.6,4.5.6h13.6v-21.2h-6.8v15.5h-6.7c-1.1,0-2.1,0-3.1-.3-1-.2-1.9-.4-2.8-.8,0-.3,0-.6,0-.9,0-.3,0-.6,0-.9v-12.7h-6.8v11.8c0,.7,0,1.3-.2,1.8-.1.5-.3.9-.6,1.2s-.6.5-1,.6c-.4.1-.9.2-1.5.2h-26.5c-.5,0-1,0-1.3-.2-.3-.1-.6-.3-.8-.5-.2-.2-.3-.6-.4-1s0-.9,0-1.5v-16.7h-6.8v2.9c-1,.2-2.1.5-3.3.9-1.2.3-2.4.8-3.6,1.3-1.2.5-2.4,1.1-3.5,1.7-1.1.7-2.1,1.4-3,2.3-.9.8-1.6,1.8-2.1,2.9-.5,1.1-.8,2.2-.8,3.6s.3,2.8.9,3.8c.6,1.1,1.4,1.9,2.4,2.6ZM777.7,267.1c.5-.7,1.1-1.3,2-1.8.9-.5,1.9-1,3.1-1.4,1.2-.4,2.6-.8,4.1-1.1v8.8c-.7.4-1.5.8-2.4,1.1-.9.3-1.9.4-2.9.4s-1.1,0-1.6-.2c-.5-.1-1-.3-1.5-.6-.4-.3-.8-.7-1-1.1-.3-.5-.4-1-.4-1.7s.2-1.6.7-2.3Z"></path>
      <path class="cls-9" d="M779.6,250.2c.3.3.7.5,1.1.7s.8.3,1.3.3.9,0,1.3-.3.8-.4,1.1-.7c.3-.3.5-.7.7-1,.2-.4.3-.8.3-1.3s0-.9-.3-1.3c-.2-.4-.4-.7-.7-1-.3-.3-.7-.5-1.1-.7-.4-.2-.8-.3-1.3-.3s-.9,0-1.3.3c-.4.2-.8.4-1.1.7-.3.3-.5.7-.7,1-.2.4-.3.8-.3,1.3s0,.9.3,1.3c.2.4.4.7.7,1Z"></path>
      <path class="cls-9" d="M787.5,250.2c.3.3.7.5,1.1.7s.8.3,1.3.3.9,0,1.3-.3.8-.4,1.1-.7c.3-.3.5-.7.7-1,.2-.4.3-.8.3-1.3s0-.9-.3-1.3c-.2-.4-.4-.7-.7-1-.3-.3-.7-.5-1.1-.7-.4-.2-.8-.3-1.3-.3s-.9,0-1.3.3c-.4.2-.8.4-1.1.7-.3.3-.5.7-.7,1-.2.4-.3.8-.3,1.3s0,.9.3,1.3c.2.4.4.7.7,1Z"></path>
      <path class="cls-9" d="M826.7,251.5c.3.3.7.5,1.1.7s.8.3,1.3.3.9,0,1.3-.3.8-.4,1.1-.7c.3-.3.5-.7.7-1,.2-.4.3-.8.3-1.3s0-.9-.3-1.3c-.2-.4-.4-.7-.7-1-.3-.3-.7-.5-1.1-.7s-.8-.3-1.3-.3-.9,0-1.3.3-.8.4-1.1.7c-.3.3-.5.7-.7,1-.2.4-.3.8-.3,1.3s0,.9.3,1.3c.2.4.4.7.7,1Z"></path>
      <path class="cls-9" d="M850.1,284.5c-.4.2-.8.4-1.1.7-.3.3-.5.7-.7,1-.2.4-.3.8-.3,1.3s0,.9.3,1.3c.2.4.4.7.7,1,.3.3.7.5,1.1.7.4.2.8.3,1.3.3s.9,0,1.3-.3.8-.4,1.1-.7.5-.7.7-1c.2-.4.3-.8.3-1.3s0-.9-.3-1.3c-.2-.4-.4-.7-.7-1s-.7-.5-1.1-.7c-.4-.2-.8-.3-1.3-.3s-.9,0-1.3.3Z"></path>
      <path class="cls-9" d="M844.9,284.5c-.4-.2-.8-.3-1.3-.3s-.9,0-1.3.3c-.4.2-.8.4-1.1.7-.3.3-.5.7-.7,1-.2.4-.3.8-.3,1.3s0,.9.3,1.3c.2.4.4.7.7,1,.3.3.7.5,1.1.7.4.2.8.3,1.3.3s.9,0,1.3-.3c.4-.2.8-.4,1.1-.7.3-.3.5-.7.7-1,.2-.4.3-.8.3-1.3s0-.9-.3-1.3c-.2-.4-.4-.7-.7-1-.3-.3-.7-.5-1.1-.7Z"></path>
      <path class="cls-9" d="M912.8,267.4c-.2-.9-.5-1.8-.9-2.6-.4-.9-.9-1.7-1.5-2.4-.6-.8-1.4-1.4-2.2-2-.8-.6-1.8-1-2.9-1.4s-2.2-.5-3.5-.5-1.9.2-3.1.5-2.3.9-3.4,1.9c-1.2.9-2.3,2.3-3.4,4-1.1,1.7-2.1,4-2.9,6.8-.3.9-.8,1.6-1.4,2.1-.6.4-1.4.7-2.3.7h-1.3c-1.1,0-2.2,0-3.3-.3-1-.2-2-.5-2.9-.9.2-.8.3-1.6.3-2.5,0-2.4-.9-4.9-2.7-7.5-1.8-2.6-4.4-5.3-7.8-8.1l-4.9,4.8c1.1.8,2.1,1.8,3.2,2.7,1,1,2,2,2.8,2.9s1.5,2,2,2.9c.5,1,.8,1.9.8,2.7s0,.9-.2,1.3c-.1.4-.4.7-.7,1-.3.3-.9.5-1.5.7-.7.2-1.5.2-2.6.2h-10.1v5.7h9.9c2.1,0,3.9-.2,5.4-.7,1.5-.5,2.7-1.1,3.6-2,1,.8,2.1,1.5,3.5,2,1.2.5,2.8.7,4.5.7,0,0,0,0,0,0,.2,0,.3,0,.5,0h2.2c3,0,5.2-1.1,6.8-3.2.5.4,1,.8,1.6,1.3.6.4,1.3.8,2,1.1s1.7.6,2.6.8c1,.2,2.1.3,3.3.3s3.3-.3,4.6-.9c1.3-.6,2.5-1.3,3.4-2.3.9-1,1.6-2.1,2.1-3.3.5-1.2.7-2.5.7-3.9s-.1-1.7-.3-2.6ZM906.4,272.2c-.3.6-.6,1.1-1.1,1.5-.5.4-1.1.7-1.8.9-.7.2-1.5.3-2.3.3s-1.2,0-1.8-.2c-.6-.1-1.3-.3-1.8-.5-.6-.2-1.1-.4-1.6-.7s-.8-.5-1-.7c.2-1.1.5-2.2,1-3.3s.9-2,1.4-2.8,1.2-1.5,1.9-2,1.5-.8,2.3-.8,1.6.2,2.3.6c.7.4,1.2.9,1.7,1.5s.8,1.3,1,2,.3,1.3.3,2c0,.9-.1,1.7-.4,2.3Z"></path>
      <path class="cls-9" d="M408.8,308.3c-.4-.2-.8-.3-1.3-.3s-.9,0-1.3.3c-.4.2-.8.4-1.1.7-.3.3-.5.7-.7,1-.2.4-.3.8-.3,1.3s0,.9.3,1.3c.2.4.4.7.7,1,.3.3.7.5,1.1.7s.8.3,1.3.3.9,0,1.3-.3.8-.4,1.1-.7c.3-.3.5-.7.7-1,.2-.4.3-.8.3-1.3s0-.9-.3-1.3c-.2-.4-.4-.7-.7-1-.3-.3-.7-.5-1.1-.7Z"></path>
      <path class="cls-9" d="M416.6,308.3c-.4-.2-.8-.3-1.3-.3s-.9,0-1.3.3c-.4.2-.8.4-1.1.7-.3.3-.5.7-.7,1-.2.4-.3.8-.3,1.3s0,.9.3,1.3c.2.4.4.7.7,1,.3.3.7.5,1.1.7s.8.3,1.3.3.9,0,1.3-.3.8-.4,1.1-.7c.3-.3.5-.7.7-1,.2-.4.3-.8.3-1.3s0-.9-.3-1.3c-.2-.4-.4-.7-.7-1-.3-.3-.7-.5-1.1-.7Z"></path>
      <path class="cls-9" d="M520.4,348.8c-.3-.3-.7-.5-1.1-.7s-.8-.3-1.3-.3-.9,0-1.3.3c-.4.2-.8.4-1.1.7-.3.3-.5.7-.7,1s-.3.8-.3,1.3,0,.9.3,1.3.4.7.7,1c.3.3.7.5,1.1.7.4.2.8.3,1.3.3s.9,0,1.3-.3.8-.4,1.1-.7.5-.7.7-1c.2-.4.3-.8.3-1.3s0-.9-.3-1.3c-.2-.4-.4-.7-.7-1Z"></path>
      <path class="cls-9" d="M528.2,348.8c-.3-.3-.7-.5-1.1-.7-.4-.2-.8-.3-1.3-.3s-.9,0-1.3.3c-.4.2-.8.4-1.1.7-.3.3-.5.7-.7,1s-.3.8-.3,1.3,0,.9.3,1.3.4.7.7,1c.3.3.7.5,1.1.7.4.2.8.3,1.3.3s.9,0,1.3-.3c.4-.2.8-.4,1.1-.7s.5-.7.7-1c.2-.4.3-.8.3-1.3s0-.9-.3-1.3c-.2-.4-.4-.7-.7-1Z"></path>
      <path class="cls-9" d="M538.6,315.1c.3.3.7.5,1.1.7s.8.3,1.3.3.9,0,1.3-.3.8-.4,1.1-.7c.3-.3.5-.7.7-1,.2-.4.3-.8.3-1.3s0-.9-.3-1.3c-.2-.4-.4-.7-.7-1-.3-.3-.7-.5-1.1-.7s-.8-.3-1.3-.3-.9,0-1.3.3-.8.4-1.1.7c-.3.3-.5.7-.7,1-.2.4-.3.8-.3,1.3s0,.9.3,1.3c.2.4.4.7.7,1Z"></path>
      <path class="cls-9" d="M563.5,309.7c-.4-.2-.8-.3-1.3-.3s-.9,0-1.3.3c-.4.2-.8.4-1.1.7-.3.3-.5.7-.7,1-.2.4-.3.8-.3,1.3s0,.9.3,1.3.4.7.7,1c.3.3.7.5,1.1.7.4.2.8.3,1.3.3s.9,0,1.3-.3.8-.4,1.1-.7.5-.7.7-1c.2-.4.3-.8.3-1.3s0-.9-.3-1.3c-.2-.4-.4-.7-.7-1s-.7-.5-1.1-.7Z"></path>
      <path class="cls-9" d="M572.4,310.4c-.3-.3-.7-.5-1.1-.7-.4-.2-.8-.3-1.3-.3s-.9,0-1.3.3c-.4.2-.8.4-1.1.7-.3.3-.5.7-.7,1-.2.4-.3.8-.3,1.3s0,.9.3,1.3.4.7.7,1c.3.3.7.5,1.1.7.4.2.8.3,1.3.3s.9,0,1.3-.3c.4-.2.8-.4,1.1-.7s.5-.7.7-1c.2-.4.3-.8.3-1.3s0-.9-.3-1.3c-.2-.4-.4-.7-.7-1Z"></path>
      <path class="cls-9" d="M599.5,309.7c-.4-.2-.8-.3-1.3-.3s-.9,0-1.3.3-.8.4-1.1.7c-.3.3-.5.7-.7,1-.2.4-.3.8-.3,1.3s0,.9.3,1.3c.2.4.4.7.7,1,.3.3.7.5,1.1.7s.8.3,1.3.3.9,0,1.3-.3c.4-.2.8-.4,1.1-.7.3-.3.5-.7.7-1,.2-.4.3-.8.3-1.3s0-.9-.3-1.3c-.2-.4-.4-.7-.7-1-.3-.3-.7-.5-1.1-.7Z"></path>
      <path class="cls-9" d="M591.7,309.7c-.4-.2-.8-.3-1.3-.3s-.9,0-1.3.3-.8.4-1.1.7c-.3.3-.5.7-.7,1-.2.4-.3.8-.3,1.3s0,.9.3,1.3c.2.4.4.7.7,1,.3.3.7.5,1.1.7s.8.3,1.3.3.9,0,1.3-.3c.4-.2.8-.4,1.1-.7.3-.3.5-.7.7-1s.3-.8.3-1.3,0-.9-.3-1.3c-.2-.4-.4-.7-.7-1-.3-.3-.7-.5-1.1-.7Z"></path>
      <path class="cls-9" d="M612.5,338h-8.9c-1.1,0-2.1,0-3.1-.3s-1.9-.4-2.8-.8c0-.3,0-.6,0-.9,0-.3,0-.6,0-.9v-12.7h-6.8v11.8c0,.7,0,1.3-.2,1.8-.1.5-.3.9-.6,1.2s-.6.5-1,.6c-.4.1-.9.2-1.5.2h-11.9c.2-.4.4-.9.6-1.4.2-.5.4-1.1.5-1.7.2-.6.3-1.2.4-1.8.1-.6.2-1.2.2-1.8,0-1.3-.2-2.6-.7-3.8-.5-1.2-1.1-2.2-2-3.1-.9-.9-2-1.6-3.3-2.1-1.3-.5-2.8-.8-4.5-.8s-3.7.3-5.2.9c-1.5.6-2.8,1.4-3.9,2.4-1.1,1-1.9,2.1-2.5,3.4-.6,1.3-.9,2.7-.9,4.1s0,.8.1,1.3c0,.5.2,1,.4,1.5.2.5.4,1,.7,1.6.3.5.6,1,.9,1.5h-6.7c-1.1,0-2.1,0-3.1-.3s-1.9-.4-2.8-.8c0-.3,0-.6,0-.9,0-.3,0-.6,0-.9v-12.7h-6.8v11.8c0,.7,0,1.3-.2,1.8-.1.5-.3.9-.6,1.2s-.6.5-1,.6c-.4.1-.9.2-1.5.2h-3c-1.1,0-2.1,0-3.1-.3-1-.2-1.9-.4-2.8-.8,0-.3,0-.6,0-.9,0-.3,0-.6,0-.9v-12.7h-6.8v11.8c0,.7,0,1.3-.2,1.8-.1.5-.3.9-.6,1.2s-.6.5-1,.6c-.4.1-.9.2-1.5.2h-94.5c-.5,0-1,0-1.3-.2-.3-.1-.6-.3-.8-.5-.2-.2-.3-.6-.4-1s0-.9,0-1.5v-16.7h-6.8v2.9c-1,.2-2.1.5-3.3.9s-2.4.8-3.6,1.3c-1.2.5-2.4,1.1-3.5,1.7-1.1.7-2.1,1.4-3,2.3-.9.8-1.6,1.8-2.1,2.9-.5,1.1-.8,2.2-.8,3.6s.3,2.8.9,3.8c.6,1.1,1.4,1.9,2.4,2.6,1,.7,2.1,1.2,3.3,1.5,1.2.3,2.4.5,3.6.5s2.3-.1,3.4-.4c1.1-.2,2.2-.7,3.3-1.2.2.5.5.9.9,1.3.4.4.9.8,1.5,1.1.6.3,1.3.5,2.2.7.9.2,1.9.3,3.1.3h98c1.3,0,2.4-.2,3.3-.6.9-.4,1.7-.9,2.3-1.6.9.6,2,1.2,3.3,1.5,1.2.4,2.7.6,4.5.6h5.4c1.3,0,2.4-.2,3.3-.6.9-.4,1.7-.9,2.3-1.6.9.6,2,1.2,3.3,1.5,1.2.4,2.7.6,4.5.6h3.8c1.2,0,2.5,0,3.7,0,1.3,0,2.6,0,3.8-.2,1.3,0,2.5-.1,3.7-.2,1.2-.1,2.3-.2,3.3-.4,1.4.2,3,.4,4.8.6,1.8.2,3.7.2,5.7.2h11.5c1.3,0,2.4-.2,3.3-.6.9-.4,1.7-.9,2.3-1.6.9.6,2,1.2,3.3,1.5,1.2.4,2.7.6,4.5.6h15.8v-37.2h-6.8v31.5ZM411.5,335c-.7.4-1.5.8-2.4,1.1-.9.3-1.9.4-2.9.4s-1.1,0-1.6-.2c-.5-.1-1-.3-1.5-.6-.4-.3-.8-.7-1.1-1.1-.3-.5-.4-1-.4-1.7s.2-1.6.7-2.3c.5-.7,1.1-1.3,2-1.8.9-.5,1.9-1,3.1-1.4,1.2-.4,2.6-.8,4.1-1.1v8.8ZM570.5,333.8c-.1.6-.3,1.1-.4,1.6-.2.5-.4,1-.6,1.4-.2.4-.4.8-.6,1.2h-1c-.9,0-1.8-.2-2.7-.5-.8-.3-1.5-.7-2.2-1.3-.6-.6-1.1-1.2-1.5-2-.4-.8-.5-1.6-.5-2.6s.1-1.6.4-2.2c.3-.6.7-1.2,1.1-1.6.5-.4,1-.7,1.6-.9.6-.2,1.2-.3,1.8-.3s1.1.1,1.7.3c.6.2,1,.6,1.5,1,.4.5.8,1,1,1.7.3.7.4,1.5.4,2.3s0,1.1-.2,1.7Z"></path>
      <rect class="cls-9" x="626.2" y="306.5" width="6.8" height="37.2"></rect>
      <path class="cls-9" d="M661,326.3c-.6-.9-1.2-1.7-1.9-2.3-.7-.6-1.5-1.1-2.3-1.4s-1.6-.6-2.5-.7c-.8-.1-1.6-.2-2.4-.2-1.7,0-3.3.3-4.8.9s-2.8,1.4-3.9,2.5c-1.1,1-2,2.3-2.6,3.7-.6,1.4-1,3-1,4.7s.2,2.4.7,3.6c.4,1.2,1.1,2.4,2.1,3.4,1,1,2.2,1.8,3.7,2.5,1.5.6,3.4,1,5.6,1s1.1,0,1.9-.1c.7,0,1.4-.2,2.1-.3-.4.8-.9,1.5-1.7,2.1-.8.7-1.7,1.3-2.7,1.8-1,.5-2.2,1-3.6,1.3-1.3.4-2.7.6-4.3.8h-.6l.6,5.5c2.8-.3,5.5-.7,7.8-1.4,2.4-.7,4.4-1.6,6.1-2.9,1.7-1.3,3.1-2.9,4-4.9,1-2,1.4-4.4,1.4-7.4v-4.4c0-1.7-.2-3.2-.5-4.4s-.8-2.4-1.3-3.3ZM656,337.7c-.2,0-.4.2-.7.2-.3,0-.6.1-.9.2-.3,0-.7,0-1,.1-.3,0-.7,0-1,0-1.1,0-2.1-.1-2.9-.4-.8-.3-1.5-.7-2-1.2-.5-.5-.9-1.1-1.2-1.8-.3-.7-.4-1.5-.4-2.3s.1-1.6.4-2.3.7-1.3,1.1-1.8,1-.9,1.6-1.2c.6-.3,1.2-.4,1.9-.4s1.2.1,1.8.3c.6.2,1.1.7,1.6,1.3s.8,1.5,1.1,2.6c.3,1.1.4,2.6.4,4.3v2.2Z"></path>
      <path class="cls-9" d="M708,331c-.2-.9-.5-1.7-.9-2.5s-.9-1.6-1.5-2.4c-.6-.8-1.3-1.5-2.2-2-.8-.6-1.8-1.1-2.9-1.4-1.1-.4-2.3-.5-3.6-.5s-1.3,0-2,.2c-.7.1-1.5.4-2.2.7-.8.4-1.6.9-2.3,1.5-.8.6-1.6,1.4-2.3,2.4-.7,1-1.5,2.1-2.1,3.5-.7,1.4-1.3,3-1.8,4.8-.6.2-1.2.5-1.9.9-.7.3-1.3.7-2,1.2-.7.5-1.3,1-1.9,1.7-.6.6-1.2,1.4-1.6,2.3-.5.9-.9,1.9-1.1,3-.3,1.1-.4,2.4-.4,3.8s.1,2,.3,3.2c.2,1.3.5,2.6.8,4.1.3,1.2.6,2.5.9,3.7l6.1-2.3c-.3-.9-.5-1.8-.7-2.6-.3-1.2-.5-2.4-.6-3.4-.1-1.1-.2-2-.2-2.9,0-1.3.2-2.3.5-3.2s.8-1.6,1.3-2.1c.5-.5,1.1-1,1.8-1.2.7-.3,1.3-.5,2-.6.5.4,1.1.8,1.7,1.2.7.4,1.4.8,2.2,1.1.8.3,1.7.6,2.7.8,1,.2,1.9.3,3,.3,2,0,3.6-.3,5.1-.9,1.4-.6,2.6-1.4,3.5-2.4.9-1,1.6-2.1,2-3.4.4-1.3.7-2.6.7-3.9s0-1.5-.3-2.4ZM701.6,335.9c-.3.6-.6,1.1-1.1,1.5-.5.3-1.1.6-1.8.7-.7.1-1.5.2-2.3.2s-1.2,0-1.9-.2c-.7-.1-1.3-.3-1.9-.5-.6-.2-1.2-.4-1.6-.7-.5-.2-.9-.5-1.1-.7.2-1.1.6-2.2,1-3.3s.9-2,1.5-2.8c.6-.8,1.2-1.5,2-2,.7-.5,1.5-.7,2.4-.7s1.6.2,2.3.6,1.2.9,1.6,1.5c.4.6.8,1.3,1,2,.2.7.3,1.3.3,1.9,0,1-.1,1.8-.4,2.4Z"></path>
      <path class="cls-9" d="M906.2,338h-6.3c-1.1,0-2.1,0-3.1-.3s-1.9-.4-2.8-.8c0-.3,0-.6,0-.9,0-.3,0-.6,0-.9v-28.7h-6.9v27.8c0,.7,0,1.3-.2,1.8-.1.5-.3.9-.6,1.2s-.6.5-1,.6c-.4.1-.9.2-1.5.2h-5.4c-.7,0-1.3,0-2,0-.7,0-1.4-.1-2-.2-.6,0-1.2-.2-1.8-.3s-1.1-.2-1.5-.4c1.2-1.2,2.2-2.4,3-3.4s1.4-2,1.8-2.9c.4-.9.7-1.7.9-2.4.2-.7.2-1.3.2-1.8,0-1-.3-1.8-.9-2.5-.6-.7-1.3-1.3-2.2-1.7-.9-.4-1.9-.8-3-1-1.1-.2-2.2-.3-3.3-.3s-2.6,0-3.8.3c-1.2.2-2.3.4-3.3.7-1,.3-2,.6-2.8.9-.8.3-1.5.7-2.1.9-.3.2-.5.4-.8.8s-.5.8-.7,1.3c-.2.5-.4,1-.6,1.5-.2.5-.3.9-.4,1.3.1.2.4.4.7.8.3.4.7.9,1.2,1.5.3.4.7.9,1.1,1.4.4.5.9,1.1,1.3,1.6.5.6,1,1.1,1.5,1.6.5.5,1,1,1.5,1.5-.6.2-1.5.4-2.6.6-1.2.2-2.4.3-3.9.3h-3.8c-1.1,0-2.1,0-3.1-.3s-1.9-.4-2.8-.8c0-.3,0-.6,0-.9,0-.3,0-.6,0-.9v-28.7h-6.9v27.8c0,.7,0,1.3-.2,1.8-.1.5-.3.9-.6,1.2s-.6.5-1,.6c-.4.1-.9.2-1.5.2h-97.4v-4c0-1.7-.2-3.2-.5-4.4-.3-1.3-.8-2.4-1.3-3.3-.6-.9-1.2-1.7-1.9-2.3-.7-.6-1.5-1.1-2.3-1.4-.8-.4-1.6-.6-2.5-.7-.8-.1-1.7-.2-2.4-.2-1.9,0-3.6.3-5.1,1-1.5.6-2.8,1.5-3.9,2.6-1.1,1.1-1.9,2.3-2.5,3.8-.6,1.4-.9,2.9-.9,4.5s.2,2.4.7,3.6,1.2,2.3,2.2,3.3c1,1,2.3,1.8,4,2.4,1.6.6,3.6.9,6,.9h3.2c-.4.7-1.1,1.4-1.8,2.1-.8.6-1.7,1.2-2.8,1.7-1.1.5-2.3.9-3.7,1.3-1.4.3-2.9.6-4.5.7l.6,5.5c2.2-.2,4.4-.6,6.4-1.2,2-.6,3.9-1.4,5.5-2.3,1.7-.9,3.1-2.1,4.3-3.4,1.2-1.3,2.1-2.8,2.8-4.4h100.2c1.3,0,2.4-.2,3.4-.6.9-.4,1.7-.9,2.3-1.6.9.6,2,1.2,3.3,1.5,1.2.4,2.7.6,4.5.6h3.6c1.2,0,2.3,0,3.4-.2,1.1-.2,2.1-.4,3.1-.6,1-.3,1.9-.6,2.8-.9.9-.3,1.7-.7,2.4-1,.5.3,1.2.6,2,.9.8.3,1.7.6,2.7.9,1,.3,2.1.5,3.3.7,1.2.2,2.4.3,3.8.3h9.2c1.3,0,2.4-.2,3.4-.6.9-.4,1.7-.9,2.3-1.6.9.6,2,1.2,3.3,1.5,1.2.4,2.7.6,4.5.6h13.2v-37.2h-6.9v31.5ZM730.4,338h-3.7c-2.2,0-3.8-.5-4.9-1.4-1-1-1.5-2.3-1.5-3.9s.1-1.6.4-2.3.7-1.3,1.1-1.8,1-.9,1.6-1.2c.6-.3,1.3-.4,1.9-.4s1.2.1,1.8.3c.6.2,1.1.7,1.6,1.3.5.6.8,1.5,1.1,2.6.3,1.1.4,2.6.4,4.3v2.5ZM870.5,330c-.2.5-.4,1-.8,1.5-.4.5-.8,1.1-1.4,1.7-.6.6-1.3,1.2-2.2,1.8-.6-.4-1.2-1-1.8-1.6-.6-.7-1.3-1.3-1.9-2-.6-.7-1.1-1.4-1.6-2-.5-.7-.9-1.2-1.1-1.7.5-.2,1-.4,1.6-.6.6-.2,1.1-.4,1.7-.5.6-.1,1.1-.2,1.7-.3.5,0,1-.1,1.4-.1.7,0,1.3,0,1.9.2.6.1,1.1.3,1.5.6s.7.5,1,.9c.2.3.3.7.3,1.1s0,.7-.3,1.2Z"></path>
    </g>
  </g>
  <g>
    <g>
      <path class="cls-13" d="M294.8,133.2l-37.7,37.7c-1.5,1.5-3.2,2.6-5.1,3.3-1.8.7-3.7,1.1-5.7,1.1h-61.4c-4,0-7.9-1.6-10.8-4.5l-37.7-37.7c-2-2-2.7-4.8-2.1-7.3.4-1.7,1.4-3.3,2.9-4.4,21.8-16.5,48.9-26.3,78.3-26.3s56.6,9.8,78.3,26.3c3.8,2.9,4.1,8.4.8,11.7Z"></path>
      <g>
        <path class="cls-2" d="M243.1,148.7c-.1-.2-2.2-4.2-3.7-6.3-7.5-10.6-19.8-16.7-32.4-16.7s-5.7.3-8.6.9c-2.8.6-5.7,1.6-8.4,2.9-1-2-2.1-3.9-3.3-5.6-1.7-2.4-3.7-4.6-5.9-6.6-5.8-5.2-13.1-8.5-20.7-9.6-1.5.7-3,1.4-4.4,2.2,1.2,0,2.3.1,3.4.3l-15.4,10.2c-.5-.6-1-1.3-1.5-2,0,0-.1-.2-.2-.3-.7.5-1.4,1-2.1,1.5,0,0,.1.2.2.3,1.7,2.4,3.6,4.5,5.7,6.4,7.3,6.6,16.9,10.2,26.7,10.2s16.3-3.5,16.3-3.5c1,2.2,2.3,4.3,3.7,6.3.3.4.5.7.8,1.1l1.5,1.9c6.3,7.2,14.9,11.9,24.2,13.2,1.9.3,3.9.4,5.9.4,5.7,0,11.5-1.2,16.9-3.8.3.6.6,1.2.9,1.7h0s0,0,0,0c.7,1.4,1.6,2.6,2.4,3.9,1.7,2.4,3.7,4.6,5.9,6.6,2.3,2,4.7,3.7,7.3,5.2l1.9-1.9c-1.1-.5-2.1-1.1-3.1-1.8l10.7-5.9,6-6-18.9,10.3c-2-1.5-3.8-3.2-5.5-5.1l19-10.3c2.6.7,5.2,1.6,7.6,2.9l1.9-1.9c-5.7-3.1-12.2-4.7-18.8-4.7s-11,1.1-16.3,3.5ZM145.4,122.2l17.2-11.4c2.6.6,5.2,1.5,7.6,2.6l-19.8,13.2c-1.8-1.3-3.4-2.8-4.9-4.4ZM152.4,128.1l20.2-13.4c2.2,1.2,4.2,2.7,6.1,4.3l-18.6,12.9c-2.7-1-5.3-2.2-7.7-3.7ZM172.5,134c-3.3,0-6.5-.4-9.6-1.3l17.6-12.1c1.5,1.5,2.9,3.1,4.1,4.8,1.2,1.6,2.2,3.4,3.1,5.3-4.9,2.2-10.1,3.3-15.2,3.3ZM194.6,137.8c-1.3-1.8-2.4-3.8-3.4-5.9,5.1-2.4,10.5-3.6,15.8-3.6s5.5.3,8.1.9l-19.5,10c-.4-.5-.7-.9-1-1.4ZM197.3,141.1l21.3-10.9c2.7.9,5.4,2.1,7.8,3.6l-23.2,12.7c-2.2-1.6-4.2-3.3-6-5.4ZM205.5,148l23.2-12.6c2.3,1.6,4.4,3.5,6.3,5.7l-20.7,10.8h0c-3.1-.9-6-2.2-8.8-3.8ZM224.9,153.4c-2.4,0-4.8-.2-7.2-.7l18.8-9.8c.3.4.5.7.8,1.1,1.3,1.8,2.4,3.8,3.4,5.9-5.1,2.4-10.5,3.6-15.9,3.6ZM248.1,157.4c-.3-.3-.5-.7-.7-1-1.2-1.6-2.2-3.4-3.1-5.3,4.9-2.2,10.1-3.3,15.2-3.3s3.7.1,5.6.4l-16.9,9.1Z"></path>
        <path class="cls-2" d="M297,126.3l-20.2,11c-2-1.5-3.9-3.2-5.5-5.1l19.2-10.4c2,.5,3.9,1.2,5.7,2-.5-.9-1.2-1.7-2.1-2.4-1-.7-2-1.5-3-2.2-3.3-.9-6.7-1.3-10.2-1.3-5.5,0-11,1.1-16.3,3.5-.1-.2-2.2-4.2-3.7-6.3-7.6-10.6-19.8-16.7-32.4-16.7s-5.7.3-8.5.9c-2.8.6-5.7,1.6-8.4,2.9-1-2-2.1-3.9-3.4-5.6-.3-.4-.6-.9-1-1.3-1.1,0-2.1.2-3.2.2.3.4.6.7.9,1.1l-17,9.5c-2.9-.5-5.8-1.3-8.5-2.5l11.8-6.4c-2.9.6-5.8,1.2-8.7,2l-5.8,3.1c-.6-.3-1.1-.6-1.6-.9-1.1.4-2.1.7-3.2,1.1,6.1,4,13.1,6.3,20.4,6.6.5,0,1.1,0,1.6,0,5.9,0,16.2-3.5,16.3-3.5,1,2.2,2.3,4.3,3.7,6.3.7,1,1.5,2,2.4,3l.3.3c7.6,8.5,18.5,13.3,29.7,13.3s5.3-.3,7.9-.8c2.6-.5,5.2-1.3,7.8-2.4.4-.2.8-.4,1.3-.6,1,2,2.1,3.9,3.3,5.6,4.4,6.2,10.4,10.8,17.1,13.6l2-2c-2.4-.9-4.7-2-6.9-3.4l18.1-9.9c.1-.9.1-1.8,0-2.7ZM194,106.8c-.6,0-1.2,0-1.9,0l14.3-8c1,1.5,2,3.1,2.8,4.8-4.9,2.2-10.1,3.3-15.2,3.3ZM217.4,112.4c-.5-.6-.9-1.2-1.3-1.7-1.3-1.8-2.4-3.8-3.4-5.9,5.1-2.4,10.5-3.6,15.8-3.6h0c2.9,0,5.7.3,8.4,1l-19.6,10.2ZM219,114.3l21.3-11.1c.6.2,1.3.4,1.9.7,2.1.8,4.2,1.9,6.1,3.1l-23.2,12.7c-2.2-1.5-4.3-3.3-6.1-5.3ZM227.5,121.1l23.1-12.6c2.2,1.6,4.2,3.4,6,5.5l-20.6,10.8c-3-.9-5.8-2.1-8.5-3.7ZM246.4,126.2c-2.3,0-4.6-.2-6.9-.6l18.7-9.7c.2.3.5.6.7.9,1.3,1.8,2.5,3.8,3.4,5.9-5.1,2.4-10.5,3.6-15.9,3.6ZM268.8,129.2c-1.2-1.6-2.2-3.4-3.1-5.3,4.9-2.2,10.1-3.3,15.2-3.3s3.9.2,5.9.5l-17.1,9.2c-.3-.4-.6-.8-.9-1.2Z"></path>
      </g>
      <path class="cls-5" d="M252.1,174.3c-1.8.7-3.7,1.1-5.7,1.1h-61.4c-4,0-7.9-1.6-10.8-4.5l-37.7-37.7c-2-2-2.7-4.8-2.1-7.3,8.9-2.5,18.2-3.8,27.9-3.8,19.5,0,37.8,5.4,53.3,14.9,15,9.1,27.7,22,36.4,37.3Z"></path>
    </g>
    <g>
      <path class="cls-14" d="M136.6,316.7l37.7-37.7c1.5-1.5,3.2-2.6,5.1-3.3,1.8-.7,3.7-1.1,5.7-1.1h61.4c4,0,7.9,1.6,10.8,4.5l37.7,37.7c2,2,2.7,4.8,2.1,7.3-.4,1.7-1.4,3.3-2.9,4.4-21.8,16.5-48.9,26.3-78.3,26.3-29.4,0-56.6-9.8-78.3-26.3-3.8-2.9-4.1-8.4-.8-11.7Z"></path>
      <g>
        <path class="cls-7" d="M175.3,278.1c-.3.3-.7.6-1,.9l-2.1,2.1,3,13.5-13.3-3.2-3,3,21.2,5-4.8-21.4Z"></path>
        <path class="cls-7" d="M150.8,302.5l-3.1,3.1,3,13.2-13.1-3.1-1,1c-.7.7-1.2,1.4-1.5,2.2l20.4,4.9-4.8-21.2Z"></path>
        <path class="cls-7" d="M204.3,324l-7.1-31.7,31.6,7.5-5.7-25.2h-3.7l4.6,20.3-31.6-7.5,7.1,31.7-31.6-7.5,7.1,31.7-23.2-5.5c4.9,2.8,9.9,5.2,15.1,7.3l12.9,3.1-7.1-31.7,31.6,7.5Z"></path>
        <path class="cls-7" d="M221.4,316.8l31.6,7.5-7.1-31.7,31.6,7.5-.2-1-4.8-4.8.2.9-31.6-7.5,7.1,31.7-31.6-7.5,7.1,31.7-31.6-7.5,3.8,17c1.3.2,2.6.4,3.9.5l-2.8-12.7,31.6,7.5-7.1-31.7Z"></path>
        <path class="cls-7" d="M296.7,319.7l-31.4-7.5,6.7,29.7c1.1-.5,2.3-1.1,3.4-1.7l-5.2-23.1,26.9,6.4c.2-1.3.1-2.6-.3-3.8Z"></path>
        <path class="cls-7" d="M244.1,351.6c1.2-.3,2.4-.5,3.6-.8l-2.1-9.4,18,4.3c1.9-.8,3.8-1.6,5.7-2.4l-28.5-6.8,3.4,15.1Z"></path>
      </g>
      <path class="cls-11" d="M179.4,275.7c1.8-.7,3.7-1.1,5.7-1.1h61.4c4,0,7.9,1.6,10.8,4.5l37.7,37.7c2,2,2.7,4.8,2.1,7.3-8.9,2.5-18.2,3.8-27.9,3.8-19.5,0-37.8-5.4-53.3-14.9-15-9.1-27.7-22-36.4-37.3Z"></path>
    </g>
    <g>
      <path class="cls-1" d="M307.5,304.1l-37.7-37.7c-1.5-1.5-2.6-3.2-3.3-5.1-.7-1.8-1.1-3.7-1.1-5.7v-61.4c0-4,1.6-7.9,4.5-10.8l37.7-37.7c2-2,4.8-2.7,7.3-2.1,1.7.4,3.3,1.4,4.4,2.9,16.5,21.8,26.3,48.9,26.3,78.3s-9.8,56.6-26.3,78.3c-2.9,3.8-8.4,4.1-11.7.8Z"></path>
      <path class="cls-4" d="M330,286.4c.9-1.6,1.7-3.3,2.5-4.9-6.8,3.5-13.8,5.8-19.9,7.2-4.9,1.2-9.3,1.8-12.3,2.1-.5,0-.9,0-1.3.1,4.3-4.4,8.2-9.1,11.6-14.1,1.3-.4,6.9-2,13.8-5.1,4.9-2.2,10.5-5.2,15.5-9,.6-1.9,1.1-3.8,1.6-5.7-5.5,5.1-12.5,9-18.5,11.7-3.7,1.7-7,2.9-9.5,3.7,3.7-5.9,6.8-12.3,9.5-18.8,1.6-.9,5.4-3.2,10-6.6,3.8-2.8,8.1-6.3,12-10.4.2-1.8.3-3.6.4-5.5-4.3,5.2-9.7,9.7-14.4,13.2-2.3,1.7-4.4,3.1-6.1,4.2,2.6-7.4,4.6-15,6-22.8,1.4-1,4.6-3.2,8.1-6.1,2-1.8,4.2-3.8,6-5.9-.1-1.6-.3-3.2-.5-4.7-.4.6-.9,1.2-1.3,1.7-2.8,3.4-6.6,6.7-9.6,9-.7.5-1.3,1-1.9,1.5,1-6.7,1.5-13.5,1.7-20.4,1-.9,3-2.7,5.1-5.4.9-1.1,1.8-2.4,2.7-3.8-.4-1.5-.8-3-1.3-4.5-1.2,2.4-2.7,4.5-4,6.2-.9,1.1-1.7,2-2.5,2.8,0-11-1.3-22-3.4-32.7-1.1-2.1-2.3-4.1-3.5-6.1,1.3,6.2,2.4,12.5,3.1,18.8.3,3,.5,6,.7,8.9-1.4-1.7-3.3-4.1-5.2-7-3.9-5.8-8.2-13.7-10.5-22.4l-3.3.8c2.4,9.6,7.2,18,11.3,24,4.1,6,7.7,9.7,7.7,9.7h.1c0,2,0,4,0,6.1,0,4.7-.3,9.4-.7,14-1.5-1.4-3.7-3.5-5.9-6.1-3.9-4.5-7.8-10.5-8.8-16.4l-3.3.6c1.2,7.2,5.7,13.7,9.9,18.5,3.4,3.9,6.5,6.6,7.6,7.6-.8,6.8-1.9,13.5-3.5,20-1.8-1.4-4.6-3.5-7.6-6.3-5-4.7-10.6-11.2-13.6-18.6l-3.1,1.3c3.4,8.3,9.6,15.3,14.9,20.2,3.6,3.3,6.8,5.7,8.5,6.9-2.1,7.6-4.7,15-8,22-2-1.4-6.1-4.4-10.4-8.3-2.8-2.6-5.7-5.7-8.1-8.9-2.4-3.3-4.2-6.7-5.1-10.2l-3.3.8c1,4.2,3.2,8.1,5.9,11.7,4,5.4,9.1,10,13.2,13.3,2.8,2.2,5.1,3.8,6.3,4.7-3,5.9-6.4,11.6-10.3,16.9-4-2.5-10.3-7.3-15.9-12.8-3.1-3-6.1-6.3-8.4-9.5-2.3-3.2-3.9-6.4-4.5-9.2l-3.3.7c.7,3.5,2.6,7,5.1,10.4,3.7,5.2,8.8,10.2,13.7,14.5,4.2,3.6,8.2,6.6,11.3,8.6-2.3,3-4.8,5.9-7.5,8.6h0s0,0,0,0c-.1.2-.3.3-.4.4l2.7,2.7c3-.2,8.7-.8,15.6-2.5,5.1-1.2,10.8-3,16.6-5.5Z"></path>
      <path class="cls-12" d="M266.4,261.3c-.7-1.8-1.1-3.7-1.1-5.7v-61.4c0-4,1.6-7.9,4.5-10.8l37.7-37.7c2-2,4.8-2.7,7.3-2.1,2.5,8.9,3.8,18.2,3.8,27.9,0,19.5-5.4,37.8-14.9,53.3-9.1,15-22,27.7-37.3,36.4Z"></path>
    </g>
    <g>
      <path class="cls-8" d="M124,145.9l37.7,37.7c1.5,1.5,2.6,3.2,3.3,5.1.7,1.8,1.1,3.7,1.1,5.7v61.4c0,4-1.6,7.9-4.5,10.8l-37.7,37.7c-2,2-4.8,2.7-7.3,2.1-1.7-.4-3.3-1.4-4.4-2.9-16.5-21.8-26.3-48.9-26.3-78.3s9.8-56.6,26.3-78.3c2.9-3.8,8.4-4.1,11.7-.8Z"></path>
      <g>
        <path class="cls-6" d="M120.2,163.1h0c1.4,0,2.8-.5,3.9-1.6,1.1-1.1,1.6-2.5,1.6-3.9s-.2-1.7-.6-2.5l4-4-2.5-2.5-4,4c-.8-.4-1.6-.6-2.5-.6h0c-1.4,0-2.8.5-3.9,1.6s-1.6,2.5-1.6,3.9.5,2.8,1.6,3.9c1.1,1.1,2.5,1.6,3.9,1.6Z"></path>
        <path class="cls-6" d="M119,196.8c1.1,1.1,2.5,1.6,3.9,1.6h0c1.4,0,2.8-.5,3.9-1.6,1.1-1.1,1.6-2.5,1.6-3.9s-.5-2.8-1.6-3.9c-1.1-1.1-2.5-1.6-3.9-1.6s-2.8.5-3.9,1.6c-.6.6-1.1,1.4-1.3,2.2h-27.3c-.3,1.2-.6,2.3-.9,3.5h28.2c.3.8.7,1.5,1.3,2.2Z"></path>
        <path class="cls-6" d="M104.3,291.5l61.8-61.8v-5l-63.6,63.6c.6,1.1,1.2,2.1,1.8,3.1Z"></path>
        <path class="cls-6" d="M165.9,191.4l-17.2,17.2h-61.6c-.1,1.2-.3,2.3-.4,3.5h61l-54.7,54.7c.4,1.2.9,2.5,1.3,3.7l71.9-71.9v-4.3c0-1,0-1.9-.3-2.8Z"></path>
        <path class="cls-6" d="M106.2,178.8h0c1.4,0,2.8-.5,3.9-1.6.7-.7,1.1-1.5,1.4-2.3h29l6.2-6.2-2.1-2.1-5.4,5.4h-27.7c-.2-1-.7-1.8-1.5-2.6-1.1-1.1-2.5-1.6-3.9-1.6h0c-1.4,0-2.8.5-3.9,1.6-1.1,1.1-1.6,2.5-1.6,3.9s.5,2.8,1.6,3.9c1.1,1.1,2.5,1.6,3.9,1.6ZM104.6,171.6c.4-.4,1-.7,1.6-.7s1.2.2,1.6.7c.4.4.7,1,.7,1.6s-.2,1.2-.7,1.6c-.4.4-1,.7-1.6.7s-1.2-.2-1.6-.7c-.4-.4-.7-1-.7-1.6s.2-1.2.7-1.6Z"></path>
        <path class="cls-6" d="M106.3,231c1.4,0,2.8-.5,3.9-1.6,1.1-1.1,1.6-2.5,1.6-3.9s-.5-2.8-1.6-3.9c-1.1-1.1-2.5-1.6-3.9-1.6h0c-1.4,0-2.8.5-3.9,1.6-1.1,1.1-1.6,2.5-1.6,3.9s.2,1.9.7,2.7l-14.3,14.3c.2,1.2.3,2.4.5,3.6l15.9-15.9c.8.5,1.8.7,2.7.7Z"></path>
      </g>
      <path class="cls-10" d="M165,188.6c.7,1.8,1.1,3.7,1.1,5.7v61.4c0,4-1.6,7.9-4.5,10.8l-37.7,37.7c-2,2-4.8,2.7-7.3,2.1-2.5-8.9-3.8-18.2-3.8-27.9,0-19.5,5.4-37.8,14.9-53.3,9.1-15,22-27.7,37.3-36.4Z"></path>
    </g>
    <g>
      <path class="cls-3" d="M245.3,245.2c-9.7-5.8-21.4,0-29.6,5.8-8.2-5.7-19.9-11.7-29.6-5.8-.8.4-.5.4,0,.4.7,0,1.9,0,2.2,0,5.1-.1,15,3.9,22.4,9,0,0,0,0,0,0-4.3,3.1-8.5,6.3-13.1,8.8h8.1c1.3,0,2.6-.4,3.7-1.1,2-1.3,4-2.7,6.2-4.2,0,0,0,0,.1,0,0,0,0,0,.1,0,2.2,1.5,4.2,3,6.2,4.2,1.1.7,2.4,1.1,3.7,1.1h8.1c-4.6-2.5-8.8-5.8-13.1-8.8,0,0,0,0,0,0,7.4-5,17.2-9.1,22.4-9,.3,0,1.5,0,2.2,0,.6,0,.9,0,0-.4Z"></path>
      <path class="cls-3" d="M203.2,214.8c-4,3.9-6.6,8.5-7.8,13.3l10.4-8.3c-1.3,4.9-1.1,9.8.4,14.4l5.7-13.8c.2,11.6,1.5,17.4,3.8,25.2,2.4-7.7,3.6-13.6,3.8-25.2l5.7,13.8c1.4-4.6,1.7-9.5.4-14.4l10.4,8.3c-1.2-4.8-3.9-9.4-7.8-13.3l13.8,3.3c-3.5-3.5-8-6.4-13.2-8.3l13-2.4c-4.9-1.7-10.2-2.5-15.7-2.2l10.9-7.7c-5.1.4-10,1.7-14.6,4l6.8-10.4c-3.9,1.6-7.5,4-10.6,7.1-.6-3.9-1.5-7.5-2.9-11.4-1.4,3.9-2.3,7.6-2.9,11.4-3-3.1-6.6-5.5-10.6-7.1l6.8,10.4c-4.6-2.3-9.5-3.6-14.6-4l10.9,7.7c-5.5-.3-10.8.5-15.7,2.2l12.9,2.4c-5.2,1.9-9.6,4.8-13.1,8.3l13.8-3.3Z"></path>
    </g>
  </g>
</svg>
